<svg xmlns="http://www.w3.org/2000/svg" viewBox="0 0 512 512" fill="#2563EB">
  <path d="M256 0C238.3 0 224 14.3 224 32V65.2C203.8 69.5 184.6 77.2 167.1 88.1L143.8 64.8C131.3 52.3 111.1 52.3 98.6 64.8L64.8 98.6C52.3 111.1 52.3 131.3 64.8 143.8L88.1 167.1C77.2 184.6 69.5 203.8 65.2 224H32C14.3 224 0 238.3 0 256C0 273.7 14.3 288 32 288H65.2C69.5 308.2 77.2 327.4 88.1 344.9L64.8 368.2C52.3 380.7 52.3 400.9 64.8 413.4L98.6 447.2C111.1 459.7 131.3 459.7 143.8 447.2L167.1 423.9C184.6 434.8 203.8 442.5 224 446.8V480C224 497.7 238.3 512 256 512C273.7 512 288 497.7 288 480V446.8C308.2 442.5 327.4 434.8 344.9 423.9L368.2 447.2C380.7 459.7 400.9 459.7 413.4 447.2L447.2 413.4C459.7 400.9 459.7 380.7 447.2 368.2L423.9 344.9C434.8 327.4 442.5 308.2 446.8 288H480C497.7 288 512 273.7 512 256C512 238.3 497.7 224 480 224H446.8C442.5 203.8 434.8 184.6 423.9 167.1L447.2 143.8C459.7 131.3 459.7 111.1 447.2 98.6L413.4 64.8C400.9 52.3 380.7 52.3 368.2 64.8L344.9 88.1C327.4 77.2 308.2 69.5 288 65.2V32C288 14.3 273.7 0 256 0ZM350.6 206.6L230.6 326.6C224.7 332.5 215.2 332.5 209.4 326.6L161.4 278.6C155.5 272.7 155.5 263.2 161.4 257.4L182.6 236.2C188.5 230.3 198 230.3 203.8 236.2L220 252.4L308.2 164.2C314.1 158.3 323.6 158.3 329.4 164.2L350.6 185.4C356.5 191.3 356.5 200.8 350.6 206.6Z"/>
</svg>